<svg width="117" height="60" viewBox="0 0 117 60" fill="none" xmlns="http://www.w3.org/2000/svg">
<rect x="0.5" y="0.5" width="116" height="59" rx="9.5" fill="#F6F6F6" stroke="#DDDFDD"/>
<path fill-rule="evenodd" clip-rule="evenodd" d="M72.0061 30.0856C72.0061 22.3063 65.7367 16 58.003 16C50.2694 16 44 22.3063 44 30.0856C44 37.1161 49.1207 42.9433 55.8151 44V34.1572H52.2596V30.0856H55.8151V26.9823C55.8151 23.4521 57.9056 21.5022 61.1042 21.5022C62.6363 21.5022 64.2388 21.7773 64.2388 21.7773V25.2436H62.473C60.7335 25.2436 60.191 26.3294 60.191 27.4433V30.0856H64.0747L63.4538 34.1572H60.191V44C66.8853 42.9433 72.0061 37.1161 72.0061 30.0856Z" fill="#1778F2"/>
</svg>
