<svg width="117" height="60" viewBox="0 0 117 60" fill="none" xmlns="http://www.w3.org/2000/svg">
<rect x="0.5" y="0.5" width="116" height="59" rx="9.5" fill="#F6F6F6" stroke="#DDDFDD"/>
<path fill-rule="evenodd" clip-rule="evenodd" d="M72.44 30.3182C72.44 29.3254 72.3509 28.3709 72.1855 27.4545H59V32.87H66.5345C66.21 34.62 65.2236 36.1027 63.7409 37.0954V40.6082H68.2655C70.9127 38.1709 72.44 34.5818 72.44 30.3182Z" fill="#4285F4"/>
<path fill-rule="evenodd" clip-rule="evenodd" d="M59.0001 44C62.7801 44 65.9491 42.7463 68.2655 40.6082L63.741 37.0954C62.4873 37.9354 60.8837 38.4318 59.0001 38.4318C55.3537 38.4318 52.2673 35.9691 51.1664 32.66H46.4891V36.2872C48.7928 40.8627 53.5273 44 59.0001 44Z" fill="#34A853"/>
<path fill-rule="evenodd" clip-rule="evenodd" d="M51.1664 32.66C50.8864 31.82 50.7273 30.9227 50.7273 30C50.7273 29.0773 50.8864 28.18 51.1664 27.34V23.7127H46.4891C45.5409 25.6027 45 27.7409 45 30C45 32.2591 45.5409 34.3973 46.4891 36.2873L51.1664 32.66Z" fill="#FBBC05"/>
<path fill-rule="evenodd" clip-rule="evenodd" d="M59.0001 21.5682C61.0555 21.5682 62.901 22.2745 64.3519 23.6618L68.3673 19.6464C65.9428 17.3873 62.7737 16 59.0001 16C53.5273 16 48.7928 19.1373 46.4891 23.7127L51.1664 27.34C52.2673 24.0309 55.3537 21.5682 59.0001 21.5682Z" fill="#EA4335"/>
</svg>
